<mxfile host="app.diagrams.net" modified="2024-01-01T00:00:00.000Z" agent="5.0" etag="xxx" version="22.1.16" type="device">
  <diagram name="Use Case Diagram" id="use-case-diagram">
    <mxGraphModel dx="1000" dy="600" grid="1" gridSize="10" guides="1" tooltips="1" connect="1" arrows="1" fold="1" page="1" pageScale="1" pageWidth="1169" pageHeight="827" math="0" shadow="0">
      <root>
        <mxCell id="0" />
        <mxCell id="1" parent="0" />
        <!-- Actors -->
        <mxCell id="actor_guest" value="Guest" style="shape=umlActor;verticalLabelPosition=bottom;verticalAlign=top;" vertex="1" parent="1">
          <mxGeometry x="60" y="100" width="30" height="60" as="geometry" />
        </mxCell>
        <mxCell id="actor_host" value="Host" style="shape=umlActor;verticalLabelPosition=bottom;verticalAlign=top;" vertex="1" parent="1">
          <mxGeometry x="60" y="220" width="30" height="60" as="geometry" />
        </mxCell>
        <mxCell id="actor_admin" value="Admin" style="shape=umlActor;verticalLabelPosition=bottom;verticalAlign=top;" vertex="1" parent="1">
          <mxGeometry x="60" y="340" width="30" height="60" as="geometry" />
        </mxCell>
        <mxCell id="actor_payment" value="Payment Gateway" style="shape=umlActor;verticalLabelPosition=bottom;verticalAlign=top;" vertex="1" parent="1">
          <mxGeometry x="800" y="200" width="30" height="60" as="geometry" />
        </mxCell>
        <!-- System Boundary -->
        <mxCell id="system_boundary" value="Airbnb Clone System" style="rounded=1;whiteSpace=wrap;html=1;strokeWidth=2;strokeColor=#1976D2;fillColor=#E3F2FD;" vertex="1" parent="1">
          <mxGeometry x="150" y="60" width="600" height="400" as="geometry" />
        </mxCell>
        <!-- Use Cases -->
        <mxCell id="uc_register" value="Register Account" style="ellipse;whiteSpace=wrap;html=1;aspect=fixed;" vertex="1" parent="system_boundary">
          <mxGeometry x="200" y="90" width="120" height="40" as="geometry" />
        </mxCell>
        <mxCell id="uc_login" value="Login" style="ellipse;whiteSpace=wrap;html=1;aspect=fixed;" vertex="1" parent="system_boundary">
          <mxGeometry x="350" y="90" width="120" height="40" as="geometry" />
        </mxCell>
        <mxCell id="uc_search" value="Search Properties" style="ellipse;whiteSpace=wrap;html=1;aspect=fixed;" vertex="1" parent="system_boundary">
          <mxGeometry x="200" y="160" width="120" height="40" as="geometry" />
        </mxCell>
        <mxCell id="uc_book" value="Book Property" style="ellipse;whiteSpace=wrap;html=1;aspect=fixed;" vertex="1" parent="system_boundary">
          <mxGeometry x="350" y="160" width="120" height="40" as="geometry" />
        </mxCell>
        <mxCell id="uc_pay" value="Make Payment" style="ellipse;whiteSpace=wrap;html=1;aspect=fixed;" vertex="1" parent="system_boundary">
          <mxGeometry x="500" y="160" width="120" height="40" as="geometry" />
        </mxCell>
        <mxCell id="uc_review" value="Leave Review" style="ellipse;whiteSpace=wrap;html=1;aspect=fixed;" vertex="1" parent="system_boundary">
          <mxGeometry x="200" y="230" width="120" height="40" as="geometry" />
        </mxCell>
        <mxCell id="uc_manage_profile" value="Manage Profile" style="ellipse;whiteSpace=wrap;html=1;aspect=fixed;" vertex="1" parent="system_boundary">
          <mxGeometry x="350" y="230" width="120" height="40" as="geometry" />
        </mxCell>
        <mxCell id="uc_list_property" value="List Property" style="ellipse;whiteSpace=wrap;html=1;aspect=fixed;" vertex="1" parent="system_boundary">
          <mxGeometry x="500" y="230" width="120" height="40" as="geometry" />
        </mxCell>
        <mxCell id="uc_manage_booking" value="Manage Bookings" style="ellipse;whiteSpace=wrap;html=1;aspect=fixed;" vertex="1" parent="system_boundary">
          <mxGeometry x="350" y="300" width="120" height="40" as="geometry" />
        </mxCell>
        <mxCell id="uc_admin_dashboard" value="Admin Dashboard" style="ellipse;whiteSpace=wrap;html=1;aspect=fixed;" vertex="1" parent="system_boundary">
          <mxGeometry x="500" y="300" width="120" height="40" as="geometry" />
        </mxCell>
        <!-- Associations (Lines) -->
        <mxCell id="line1" style="endArrow=none;html=1;" edge="1" parent="1" source="actor_guest" target="uc_register"><mxGeometry relative="1" as="geometry" /></mxCell>
        <mxCell id="line2" style="endArrow=none;html=1;" edge="1" parent="1" source="actor_guest" target="uc_login"><mxGeometry relative="1" as="geometry" /></mxCell>
        <mxCell id="line3" style="endArrow=none;html=1;" edge="1" parent="1" source="actor_guest" target="uc_search"><mxGeometry relative="1" as="geometry" /></mxCell>
        <mxCell id="line4" style="endArrow=none;html=1;" edge="1" parent="1" source="actor_guest" target="uc_book"><mxGeometry relative="1" as="geometry" /></mxCell>
        <mxCell id="line5" style="endArrow=none;html=1;" edge="1" parent="1" source="actor_guest" target="uc_pay"><mxGeometry relative="1" as="geometry" /></mxCell>
        <mxCell id="line6" style="endArrow=none;html=1;" edge="1" parent="1" source="actor_guest" target="uc_review"><mxGeometry relative="1" as="geometry" /></mxCell>
        <mxCell id="line7" style="endArrow=none;html=1;" edge="1" parent="1" source="actor_guest" target="uc_manage_profile"><mxGeometry relative="1" as="geometry" /></mxCell>
        <mxCell id="line8" style="endArrow=none;html=1;" edge="1" parent="1" source="actor_host" target="uc_register"><mxGeometry relative="1" as="geometry" /></mxCell>
        <mxCell id="line9" style="endArrow=none;html=1;" edge="1" parent="1" source="actor_host" target="uc_login"><mxGeometry relative="1" as="geometry" /></mxCell>
        <mxCell id="line10" style="endArrow=none;html=1;" edge="1" parent="1" source="actor_host" target="uc_list_property"><mxGeometry relative="1" as="geometry" /></mxCell>
        <mxCell id="line11" style="endArrow=none;html=1;" edge="1" parent="1" source="actor_host" target="uc_manage_booking"><mxGeometry relative="1" as="geometry" /></mxCell>
        <mxCell id="line12" style="endArrow=none;html=1;" edge="1" parent="1" source="actor_host" target="uc_manage_profile"><mxGeometry relative="1" as="geometry" /></mxCell>
        <mxCell id="line13" style="endArrow=none;html=1;" edge="1" parent="1" source="actor_admin" target="uc_admin_dashboard"><mxGeometry relative="1" as="geometry" /></mxCell>
        <mxCell id="line14" style="endArrow=none;html=1;" edge="1" parent="1" source="uc_pay" target="actor_payment"><mxGeometry relative="1" as="geometry" /></mxCell>
      </root>
    </mxGraphModel>
  </diagram>
</mxfile> 